<?xml version="1.0" standalone="no"?><!DOCTYPE svg PUBLIC "-//W3C//DTD SVG 1.1//EN" "http://www.w3.org/Graphics/SVG/1.1/DTD/svg11.dtd"><svg t="1696946891996" class="icon" viewBox="0 0 1024 1024" version="1.1" xmlns="http://www.w3.org/2000/svg" p-id="6284" xmlns:xlink="http://www.w3.org/1999/xlink" width="200" height="200"><path d="M470.2976 41.7024H512v243.3536h-41.7024z" fill="#DDDAD3" p-id="6285"></path><path d="M512 41.7024h41.7024v243.3536H512z" fill="#F1EEE7" p-id="6286"></path><path d="M504.4224 0h-53.0688v83.4304H512V0z" fill="#888B8E" p-id="6287"></path><path d="M565.0688 0H512v83.4304H572.6464V0z" fill="#A0A1A2" p-id="6288"></path><path d="M177.152 204.8512l44.288-36.4544 106.3424 129.2288-44.288 36.4544z" fill="#DDDAD3" p-id="6289"></path><path d="M185.7536 123.9552l-6.4768 5.3248-6.4768 5.3248-6.4768 5.3504-6.4768 5.3248-6.4768 5.3248-6.4768 5.3248-6.4768 5.3248-3.2256 2.6624 54.4256 66.176 3.2512-2.6624 6.4768-5.3248 6.4768-5.3504 6.4768-5.3248 6.4768-5.3248 6.4768-5.3248 6.4768-5.3248 6.4768-5.3248 3.2256-2.688-54.4256-66.1504z" fill="#888B8E" p-id="6290"></path><path d="M740.5056 334.08l-44.288-36.4544 106.3424-129.28 44.288 36.48z" fill="#F1EEE7" p-id="6291"></path><path d="M838.2208 123.9552l6.4768 5.3248 6.4768 5.3248 6.4768 5.3504 6.4768 5.3248 6.4768 5.3248 6.4768 5.3248 6.4768 5.3248 3.2512 2.6624-54.4512 66.176-3.2256-2.6624-6.4768-5.3248-6.4768-5.3504-6.4768-5.3248-6.4768-5.3248-6.4768-5.3248-6.4768-5.3248-6.4768-5.3248-3.2512-2.688 54.4512-66.1504z" fill="#A0A1A2" p-id="6292"></path><path d="M512 182.656c-222.6176 0-403.0976 180.48-403.0976 403.0976S289.3568 988.8512 512 988.8512V182.656z" fill="#E1E8ED" p-id="6293"></path><path d="M915.0976 585.7536c0-222.6176-180.48-403.0976-403.0976-403.0976v806.1952c222.6176 0 403.0976-180.48 403.0976-403.0976z" fill="#FFFFFF" p-id="6294"></path><path d="M144.0512 585.7536c0-202.9056 165.0688-367.9488 367.9488-367.9488V147.4816c-241.664 0-438.272 196.608-438.272 438.272S270.336 1024 512 1024v-70.3232c-202.88 0-367.9488-165.0688-367.9488-367.9232z" fill="#E5B223" p-id="6295"></path><path d="M512 147.4816v70.3232c202.88 0 367.9488 165.0688 367.9488 367.9488 0 202.8544-165.0688 367.9232-367.9488 367.9232V1024c241.664 0 438.272-196.5824 438.272-438.2464S753.664 147.4816 512 147.4816z" fill="#F9C82D" p-id="6296"></path><path d="M512 307.072l-51.1232 281.344H512V307.0976z" fill="#BC2E28" p-id="6297"></path><path d="M512 307.0976v281.3184h51.1232z" fill="#D63C30" p-id="6298"></path><path d="M512 534.6304a51.1232 51.1232 0 1 0 0 102.2464v-102.2464z" fill="#D8483D" p-id="6299"></path><path d="M563.1232 585.7536A51.1232 51.1232 0 0 0 512 534.6304v102.2464a51.1232 51.1232 0 0 0 51.1232-51.1232z" fill="#EA5745" p-id="6300"></path><path d="M512 555.392a30.3616 30.3616 0 0 0 0 60.7232v-60.7232z" fill="#F48787" p-id="6301"></path><path d="M542.336 585.7536c0-16.768-13.5936-30.3616-30.336-30.3616v60.6976c16.768 0 30.336-13.568 30.336-30.336z" fill="#FF8888" p-id="6302"></path><path d="M428.8512 805.12A83.2512 83.2512 0 0 1 512 721.9712v-12.7744a96.0256 96.0256 0 0 0-95.9232 95.9232A96 96 0 0 0 512 901.0176v-12.7744a83.2256 83.2256 0 0 1-83.1488-83.1232zM512 709.1968v12.7744a83.2256 83.2256 0 0 1 83.1232 83.1488A83.2256 83.2256 0 0 1 512 888.2432v12.7744a96.0256 96.0256 0 0 0 95.8976-95.8976A96 96 0 0 0 512 709.1968z" fill="#FF8888" p-id="6303"></path><path d="M510.336 738.3296a5.1968 5.1968 0 0 0-5.1968 5.1968v77.4912c0 2.8672 2.3296 5.1968 5.1968 5.1968 0.64 0 1.1008-0.4608 1.664-0.6912v-86.4768c-0.5632-0.256-1.024-0.7168-1.664-0.7168zM512 739.0208v86.4768c1.9456-0.7424 3.5328-2.2784 3.5328-4.5056v-77.4912c0-2.2016-1.5872-3.7376-3.5328-4.48z" fill="#FF8888" p-id="6304"></path></svg>