<?xml version="1.0" standalone="no"?><!DOCTYPE svg PUBLIC "-//W3C//DTD SVG 1.1//EN" "http://www.w3.org/Graphics/SVG/1.1/DTD/svg11.dtd"><svg t="1696947116363" class="icon" viewBox="0 0 1024 1024" version="1.1" xmlns="http://www.w3.org/2000/svg" p-id="8621" xmlns:xlink="http://www.w3.org/1999/xlink" width="200" height="200"><path d="M716.8 0c169.664 0 307.2 137.536 307.2 307.2v409.6c0 169.664-137.536 307.2-307.2 307.2H307.2C137.536 1024 0 886.464 0 716.8V307.2C0 137.536 137.536 0 307.2 0h409.6zM456.448 192.384a70.656 70.656 0 0 0-70.5664 70.5792V548.736l-6.6176-9.2928c-13.8624-19.3792-36.3904-30.8864-60.032-29.9392a71.3344 71.3344 0 0 0-58.2784 33.088 71.3344 71.3344 0 0 0 1.2544 78.464l104.1664 153.152c4.2496 6.2336 19.5072 42.0224 56.832 42.0224h282.496c37.4656 0 62.6816-42.0224 62.6816-70.4768v-224.128a53.44 53.44 0 0 0-52.3008-53.3888L544.512 451.0592l-1.8944-0.1536a15.6288 15.6288 0 0 1-15.6032-15.6032V262.9632a70.656 70.656 0 0 0-70.5664-70.5792z" fill="#1296db" p-id="8622"></path></svg>